<mxfile host="app.diagrams.net" modified="2022-03-30T06:47:27.136Z" agent="5.0 (Windows NT 10.0; Win64; x64) AppleWebKit/537.36 (KHTML, like Gecko) Chrome/99.0.4844.84 Safari/537.36" etag="DM23inG-i875HjBYuZuY" version="17.2.5" type="github">
  <diagram id="C5RBs43oDa-KdzZeNtuy" name="Page-1">
    <mxGraphModel dx="1697" dy="909" grid="1" gridSize="10" guides="1" tooltips="1" connect="1" arrows="1" fold="1" page="1" pageScale="1" pageWidth="827" pageHeight="1169" math="0" shadow="0">
      <root>
        <mxCell id="WIyWlLk6GJQsqaUBKTNV-0" />
        <mxCell id="WIyWlLk6GJQsqaUBKTNV-1" parent="WIyWlLk6GJQsqaUBKTNV-0" />
        <mxCell id="D-e-R-aruEi9n4A513Or-5" style="edgeStyle=orthogonalEdgeStyle;rounded=0;orthogonalLoop=1;jettySize=auto;html=1;entryX=-0.007;entryY=0.614;entryDx=0;entryDy=0;entryPerimeter=0;" edge="1" parent="WIyWlLk6GJQsqaUBKTNV-1" source="D-e-R-aruEi9n4A513Or-0" target="D-e-R-aruEi9n4A513Or-1">
          <mxGeometry relative="1" as="geometry" />
        </mxCell>
        <mxCell id="D-e-R-aruEi9n4A513Or-6" style="edgeStyle=orthogonalEdgeStyle;rounded=0;orthogonalLoop=1;jettySize=auto;html=1;" edge="1" parent="WIyWlLk6GJQsqaUBKTNV-1" source="D-e-R-aruEi9n4A513Or-0" target="D-e-R-aruEi9n4A513Or-2">
          <mxGeometry relative="1" as="geometry" />
        </mxCell>
        <mxCell id="D-e-R-aruEi9n4A513Or-7" style="edgeStyle=orthogonalEdgeStyle;rounded=0;orthogonalLoop=1;jettySize=auto;html=1;" edge="1" parent="WIyWlLk6GJQsqaUBKTNV-1" source="D-e-R-aruEi9n4A513Or-0" target="D-e-R-aruEi9n4A513Or-3">
          <mxGeometry relative="1" as="geometry" />
        </mxCell>
        <mxCell id="D-e-R-aruEi9n4A513Or-8" style="edgeStyle=orthogonalEdgeStyle;rounded=0;orthogonalLoop=1;jettySize=auto;html=1;entryX=0;entryY=0.5;entryDx=0;entryDy=0;" edge="1" parent="WIyWlLk6GJQsqaUBKTNV-1" source="D-e-R-aruEi9n4A513Or-0" target="D-e-R-aruEi9n4A513Or-4">
          <mxGeometry relative="1" as="geometry" />
        </mxCell>
        <mxCell id="D-e-R-aruEi9n4A513Or-0" value="Actor" style="shape=umlActor;verticalLabelPosition=bottom;verticalAlign=top;html=1;" vertex="1" parent="WIyWlLk6GJQsqaUBKTNV-1">
          <mxGeometry x="180" y="240" width="30" height="60" as="geometry" />
        </mxCell>
        <mxCell id="D-e-R-aruEi9n4A513Or-1" value="创建群组" style="ellipse;whiteSpace=wrap;html=1;" vertex="1" parent="WIyWlLk6GJQsqaUBKTNV-1">
          <mxGeometry x="320" y="110" width="140" height="70" as="geometry" />
        </mxCell>
        <mxCell id="D-e-R-aruEi9n4A513Or-2" value="查看群组" style="ellipse;whiteSpace=wrap;html=1;" vertex="1" parent="WIyWlLk6GJQsqaUBKTNV-1">
          <mxGeometry x="320" y="190" width="140" height="70" as="geometry" />
        </mxCell>
        <mxCell id="D-e-R-aruEi9n4A513Or-3" value="群组扩散" style="ellipse;whiteSpace=wrap;html=1;" vertex="1" parent="WIyWlLk6GJQsqaUBKTNV-1">
          <mxGeometry x="320" y="270" width="140" height="70" as="geometry" />
        </mxCell>
        <mxCell id="D-e-R-aruEi9n4A513Or-10" style="edgeStyle=orthogonalEdgeStyle;rounded=0;orthogonalLoop=1;jettySize=auto;html=1;" edge="1" parent="WIyWlLk6GJQsqaUBKTNV-1" source="D-e-R-aruEi9n4A513Or-4" target="D-e-R-aruEi9n4A513Or-9">
          <mxGeometry relative="1" as="geometry" />
        </mxCell>
        <mxCell id="D-e-R-aruEi9n4A513Or-4" value="使用群组" style="ellipse;whiteSpace=wrap;html=1;" vertex="1" parent="WIyWlLk6GJQsqaUBKTNV-1">
          <mxGeometry x="320" y="350" width="140" height="70" as="geometry" />
        </mxCell>
        <mxCell id="D-e-R-aruEi9n4A513Or-9" value="群组分析" style="ellipse;whiteSpace=wrap;html=1;" vertex="1" parent="WIyWlLk6GJQsqaUBKTNV-1">
          <mxGeometry x="510" y="350" width="140" height="70" as="geometry" />
        </mxCell>
        <mxCell id="D-e-R-aruEi9n4A513Or-12" value="群组是一些列标识的集合， 这个集合要关联到原始的表中：&lt;br&gt;1. 通过两个表关联实现；&lt;br&gt;&lt;div&gt;&lt;span&gt;2. 通过某些规则实现；&lt;/span&gt;&lt;/div&gt;" style="text;html=1;align=left;verticalAlign=middle;resizable=0;points=[];autosize=1;strokeColor=none;fillColor=none;" vertex="1" parent="WIyWlLk6GJQsqaUBKTNV-1">
          <mxGeometry x="45" y="475" width="330" height="50" as="geometry" />
        </mxCell>
      </root>
    </mxGraphModel>
  </diagram>
</mxfile>
